<svg xmlns="http://www.w3.org/2000/svg" viewBox="0 0 1193.12 330.4"><defs><style>.cls-1{font-size:137px;font-family:YesevaOne, Yeseva One;}.cls-1,.cls-2,.cls-8{fill:#fff;}.cls-2{font-size:54px;font-family:Montserrat-ExtraLight, Montserrat;font-weight:200;}.cls-3{letter-spacing:-0.06em;}.cls-4{letter-spacing:-0.02em;}.cls-5{letter-spacing:0em;}.cls-6{letter-spacing:-0.02em;}.cls-7,.cls-9{fill:none;stroke:#fff;stroke-miterlimit:10;}.cls-7{stroke-width:5px;}.cls-9{stroke-width:4px;}</style></defs><title>logov2</title><g id="Capa_2" data-name="Capa 2"><g id="Capa_1-2" data-name="Capa 1"><text class="cls-1" transform="translate(268.88 215.31)">shred-music</text><text class="cls-2" transform="translate(382.14 293.84)"><tspan class="cls-3">Y</tspan><tspan x="30.02" y="0">our </tspan><tspan class="cls-4" x="133.76" y="0">t</tspan><tspan x="153.84" y="0">ools </tspan><tspan class="cls-4" x="272.97" y="0">t</tspan><tspan class="cls-5" x="293.05" y="0">o be mas</tspan><tspan class="cls-6" x="535.94" y="0">t</tspan><tspan x="556.03" y="0">er</tspan></text><rect class="cls-7" x="48.31" y="49.36" width="114.55" height="174.88" rx="57.28"/><rect class="cls-8" x="48.31" y="90.79" width="40.22" height="5.48" rx="2.74"/><rect class="cls-8" x="122.65" y="90.79" width="40.22" height="5.48" rx="2.74"/><rect class="cls-8" x="46.48" y="113.94" width="51.79" height="4.87" rx="2.44"/><rect class="cls-8" x="111.68" y="114.55" width="51.79" height="4.87" rx="2.44"/><rect class="cls-8" x="47.09" y="137.71" width="42.04" height="4.87" rx="2.44"/><rect class="cls-8" x="123.26" y="137.71" width="40.83" height="4.87" rx="2.44"/><rect class="cls-8" x="47.09" y="158.43" width="29.86" height="4.87" rx="2.44"/><rect class="cls-8" x="135.44" y="158.43" width="27.42" height="4.87" rx="2.44"/><rect class="cls-8" x="47.26" y="176.71" width="18.89" height="4.27" rx="2.13"/><rect class="cls-8" x="145.02" y="176.71" width="18.28" height="4.87" rx="2.44"/><rect class="cls-8" x="4.44" y="114.55" width="21.94" height="4.87" rx="2.44"/><rect class="cls-8" x="4.44" y="90.79" width="21.94" height="4.87" rx="2.44"/><rect class="cls-8" x="7.48" y="67.03" width="21.94" height="4.87" rx="2.44" transform="translate(15.99 -2.37) rotate(12.91)"/><rect class="cls-8" x="19.06" y="45.09" width="21.94" height="4.87" rx="2.44" transform="translate(32.81 -8.62) rotate(35.12)"/><rect class="cls-8" x="35.51" y="29.86" width="21.94" height="4.87" rx="2.44" transform="translate(45.09 -24.29) rotate(53.8)"/><rect class="cls-8" x="60.5" y="16.45" width="21.94" height="4.87" rx="2.44" transform="translate(47.8 -51.14) rotate(56.53)"/><rect class="cls-8" x="92.49" y="10.05" width="25.59" height="5.48" rx="2.74" transform="translate(118.08 -92.49) rotate(90)"/><rect class="cls-8" x="126.76" y="16.74" width="21.94" height="4.87" rx="2.44" transform="translate(39.82 117.92) rotate(-53.17)"/><rect class="cls-8" x="151.37" y="29.64" width="21.94" height="4.87" rx="2.44" transform="translate(39.35 142.79) rotate(-53.17)"/><rect class="cls-8" x="168.35" y="45.09" width="21.94" height="4.87" rx="2.44" transform="translate(4.7 110.15) rotate(-34.57)"/><rect class="cls-8" x="179.92" y="67.03" width="21.94" height="4.87" rx="2.44" transform="translate(-11.58 53.09) rotate(-15.37)"/><rect class="cls-8" x="182.97" y="90.79" width="21.94" height="4.87" rx="2.44"/><rect class="cls-8" x="182.97" y="114.55" width="21.94" height="4.87" rx="2.44"/><rect class="cls-8" x="73.9" y="251.04" width="56.06" height="6.09" rx="3.05" transform="translate(356.02 152.16) rotate(90)"/><rect class="cls-8" x="56.84" y="278.46" width="90.18" height="6.09" rx="3.05"/><rect class="cls-8" x="37.34" y="291.87" width="124.91" height="6.09" rx="3.05"/><rect class="cls-8" x="19.06" y="306.49" width="162.08" height="6.09" rx="3.05"/><path class="cls-9" d="M197,173.05s10.95,84.71-95.06,82.87C-3.48,254.09,13.58,170,13.58,170"/><circle class="cls-9" cx="12.97" cy="160.86" r="10.97"/><circle class="cls-9" cx="196.99" cy="159.64" r="14.01"/></g></g></svg>