<svg xmlns="http://www.w3.org/2000/svg" viewBox="0 0 1255.12 390"><defs><style>.cls-1{font-size:137px;font-family:YesevaOne, Yeseva One;}.cls-1,.cls-2,.cls-8{fill:#fff;}.cls-2{font-size:54px;font-family:Montserrat-ExtraLight, Montserrat;font-weight:200;}.cls-3{letter-spacing:-0.06em;}.cls-4{letter-spacing:-0.02em;}.cls-5{letter-spacing:0em;}.cls-6{letter-spacing:-0.02em;}.cls-7{fill:none;stroke:#fff;stroke-miterlimit:10;stroke-width:10px;}</style></defs><title>Recurso 1</title><g id="Capa_2" data-name="Capa 2"><g id="Capa_1-2" data-name="Capa 1"><text class="cls-1" transform="translate(330.88 255.72)">shred-music</text><text class="cls-2" transform="translate(444.14 310.26)"><tspan class="cls-3">Y</tspan><tspan x="30.02" y="0">our </tspan><tspan class="cls-4" x="133.76" y="0">t</tspan><tspan x="153.84" y="0">ools </tspan><tspan class="cls-4" x="272.97" y="0">t</tspan><tspan class="cls-5" x="293.05" y="0">o be mas</tspan><tspan class="cls-6" x="535.94" y="0">t</tspan><tspan x="556.03" y="0">er</tspan></text><rect class="cls-7" x="62.78" y="61.58" width="142.92" height="218.19" rx="71.46"/><rect class="cls-8" x="62.78" y="113.27" width="50.18" height="6.84" rx="3.15"/><rect class="cls-8" x="155.53" y="113.27" width="50.18" height="6.84" rx="3.15"/><rect class="cls-8" x="60.5" y="142.16" width="64.62" height="6.08" rx="3.04"/><rect class="cls-8" x="141.84" y="142.92" width="64.62" height="6.08" rx="3.04"/><rect class="cls-8" x="61.26" y="171.81" width="52.46" height="6.08" rx="3.04"/><rect class="cls-8" x="156.29" y="171.81" width="50.94" height="6.08" rx="3.04"/><rect class="cls-8" x="61.26" y="197.66" width="37.25" height="6.08" rx="3.04"/><rect class="cls-8" x="171.49" y="197.66" width="34.21" height="6.08" rx="3.04"/><rect class="cls-8" x="58.98" y="220.47" width="23.57" height="5.32" rx="2.66"/><rect class="cls-8" x="185.94" y="220.47" width="22.81" height="6.08" rx="3.04"/><rect class="cls-8" x="8.04" y="142.92" width="27.37" height="6.08" rx="3.04"/><rect class="cls-8" x="8.04" y="113.27" width="27.37" height="6.08" rx="3.04"/><rect class="cls-8" x="11.84" y="83.63" width="27.37" height="6.08" rx="3.04" transform="translate(20.01 -3.51) rotate(12.91)"/><rect class="cls-8" x="26.29" y="56.26" width="27.37" height="6.08" rx="3.04" transform="translate(41.39 -12.2) rotate(35.12)"/><rect class="cls-8" x="46.81" y="37.25" width="27.37" height="6.08" rx="3.04" transform="translate(57.28 -32.32) rotate(53.8)"/><rect class="cls-8" x="77.98" y="20.53" width="27.37" height="6.08" rx="3.04" transform="translate(60.76 -65.89) rotate(56.53)"/><rect class="cls-8" x="117.89" y="12.54" width="31.93" height="6.84" rx="3.15" transform="translate(149.82 -117.89) rotate(90)"/><rect class="cls-8" x="160.65" y="20.88" width="27.37" height="6.08" rx="3.04" transform="translate(50.69 149.13) rotate(-53.17)"/><rect class="cls-8" x="191.36" y="36.99" width="27.37" height="6.08" rx="3.04" transform="translate(50.1 180.16) rotate(-53.17)"/><rect class="cls-8" x="212.54" y="56.26" width="27.37" height="6.08" rx="3.04" transform="translate(6.3 138.85) rotate(-34.57)"/><rect class="cls-8" x="226.99" y="83.63" width="27.37" height="6.08" rx="3.04" transform="translate(-14.36 66.9) rotate(-15.37)"/><rect class="cls-8" x="230.79" y="113.27" width="27.37" height="6.08" rx="3.04"/><rect class="cls-8" x="230.79" y="142.92" width="27.37" height="6.08" rx="3.04"/><rect class="cls-8" x="94.71" y="313.22" width="69.94" height="7.6" rx="3.15" transform="translate(446.7 187.34) rotate(90)"/><rect class="cls-8" x="73.42" y="347.43" width="112.51" height="7.6" rx="3.15"/><rect class="cls-8" x="49.09" y="364.15" width="155.85" height="7.6" rx="3.15"/><rect class="cls-8" x="26.29" y="382.4" width="202.22" height="7.6" rx="3.15"/><path class="cls-7" d="M248.27,215.91S261.94,321.59,129.68,319.3C-1.84,317,19.44,212.11,19.44,212.11"/><circle class="cls-7" cx="18.68" cy="200.7" r="13.68"/><circle class="cls-7" cx="248.27" cy="199.18" r="17.49"/></g></g></svg>