<svg xmlns="http://www.w3.org/2000/svg" viewBox="0 0 523 340"><defs><style>.cls-1{opacity:0.49;}.cls-2{fill:#d8055a;}.cls-3{opacity:0.31;}.cls-4{fill:#fff;}</style></defs><title>Recurso 2</title><g id="Capa_2" data-name="Capa 2"><g id="Capa_1-2" data-name="Capa 1"><g class="cls-1"><circle class="cls-2" cx="134" cy="295" r="45"/></g><g class="cls-3"><circle class="cls-2" cx="134" cy="295" r="31.58"/></g><g class="cls-1"><circle class="cls-2" cx="134" cy="295" r="12.63"/></g><path class="cls-4" d="M111.78,236.21H35.36C16.41,236.21,1,223.36,1,207.57V29.64C1,13.85,16.41,1,35.36,1H487.64C506.59,1,522,13.85,522,29.64V207.57c0,15.79-15.41,28.64-34.36,28.64H156.74L134,257.62Z"/><path class="cls-2" d="M487.64,2C506,2,521,14.4,521,29.64V207.57c0,15.24-15,27.64-33.36,27.64H156.35l-.58.54L134,256.24l-21.26-20.47-.58-.56H35.36C17,235.21,2,222.81,2,207.57V29.64C2,14.4,17,2,35.36,2H487.64m0-2H35.36C15.83,0,0,13.27,0,29.64V207.57c0,16.37,15.83,29.64,35.36,29.64h76L134,259l23.14-21.79h330.5c19.53,0,35.36-13.27,35.36-29.64V29.64C523,13.27,507.17,0,487.64,0Z"/></g></g></svg>